<svg width="1200" height="628" viewBox="0 0 1200 628" fill="none" xmlns="http://www.w3.org/2000/svg">
  <defs>
    <linearGradient id="bg" x1="80" y1="40" x2="1120" y2="588" gradientUnits="userSpaceOnUse">
      <stop stop-color="#111111"/>
      <stop offset="1" stop-color="#241C10"/>
    </linearGradient>
    <radialGradient id="glow" cx="0" cy="0" r="1" gradientUnits="userSpaceOnUse" gradientTransform="translate(220 100) rotate(34) scale(520 320)">
      <stop stop-color="#C6A85A" stop-opacity="0.32"/>
      <stop offset="1" stop-color="#C6A85A" stop-opacity="0"/>
    </radialGradient>
  </defs>

  <rect width="1200" height="628" fill="url(#bg)"/>
  <rect width="1200" height="628" fill="url(#glow)"/>
  <g opacity="0.12">
    <path d="M0 88H1200M0 168H1200M0 248H1200M0 328H1200M0 408H1200M0 488H1200M0 568H1200" stroke="#C6A85A"/>
    <path d="M80 0V628M200 0V628M320 0V628M440 0V628M560 0V628M680 0V628M800 0V628M920 0V628M1040 0V628M1160 0V628" stroke="#C6A85A"/>
  </g>

  <text x="60" y="58" fill="#C6A85A" font-family="Arial, sans-serif" font-size="12" font-weight="700" letter-spacing="4">LINKEDIN REVEAL / CONTROL PATH</text>
  <text x="60" y="130" fill="#FFFFFF" font-family="Georgia, serif" font-size="52" font-weight="700">From broken page</text>
  <text x="60" y="182" fill="#FFFFFF" font-family="Georgia, serif" font-size="52" font-weight="700">to frozen state</text>
  <text x="60" y="232" fill="#CFC6B6" font-family="Arial, sans-serif" font-size="20">The session was not a cosmetic edit. It was a controlled path from malformed execution surface to recorded governance checkpoint.</text>

  <g transform="translate(70 330)">
    <rect x="0" y="0" width="220" height="138" rx="18" fill="#1B1B1B" stroke="#7B2420"/>
    <text x="24" y="38" fill="#E87D73" font-family="Arial, sans-serif" font-size="13" font-weight="700" letter-spacing="2">01 / FAILURE</text>
    <text x="24" y="74" fill="#FFFFFF" font-family="Georgia, serif" font-size="28" font-weight="700">Malformed HTML</text>
    <text x="24" y="104" fill="#C9BCAB" font-family="Arial, sans-serif" font-size="18">Nested script, stray CSS, broken tail structure.</text>
  </g>

  <g transform="translate(340 330)">
    <rect x="0" y="0" width="220" height="138" rx="18" fill="#191712" stroke="#C6A85A"/>
    <text x="24" y="38" fill="#C6A85A" font-family="Arial, sans-serif" font-size="13" font-weight="700" letter-spacing="2">02 / REPAIR</text>
    <text x="24" y="74" fill="#FFFFFF" font-family="Georgia, serif" font-size="28" font-weight="700">Valid surface</text>
    <text x="24" y="104" fill="#C9BCAB" font-family="Arial, sans-serif" font-size="18">Structure normalized and interface recovered.</text>
  </g>

  <g transform="translate(610 330)">
    <rect x="0" y="0" width="220" height="138" rx="18" fill="#171914" stroke="#C6A85A"/>
    <text x="24" y="38" fill="#C6A85A" font-family="Arial, sans-serif" font-size="13" font-weight="700" letter-spacing="2">03 / ALIGNMENT</text>
    <text x="24" y="74" fill="#FFFFFF" font-family="Georgia, serif" font-size="28" font-weight="700">Brand authority</text>
    <text x="24" y="104" fill="#C9BCAB" font-family="Arial, sans-serif" font-size="18">BPB mark repositioned as controlled hero badge.</text>
  </g>

  <g transform="translate(880 330)">
    <rect x="0" y="0" width="250" height="138" rx="18" fill="#121914" stroke="#3FA76C"/>
    <text x="24" y="38" fill="#7CE0A4" font-family="Arial, sans-serif" font-size="13" font-weight="700" letter-spacing="2">04 / FREEZE</text>
    <text x="24" y="74" fill="#FFFFFF" font-family="Georgia, serif" font-size="28" font-weight="700">Recorded checkpoint</text>
    <text x="24" y="104" fill="#C9BCAB" font-family="Arial, sans-serif" font-size="18">Runtime, audit, and snapshot now agree on state.</text>
  </g>

  <path d="M290 399H330" stroke="#C6A85A" stroke-width="3"/>
  <path d="M560 399H600" stroke="#C6A85A" stroke-width="3"/>
  <path d="M830 399H870" stroke="#C6A85A" stroke-width="3"/>

  <text x="60" y="588" fill="#A89A86" font-family="Arial, sans-serif" font-size="12" font-weight="700" letter-spacing="3">ALAA ATIA x THE BIG G / BPB SOLUTIONS LTD</text>
  <text x="890" y="588" fill="#C6A85A" font-family="Arial, sans-serif" font-size="12" font-weight="700" letter-spacing="2">FREEZE_2026_03_19T000822Z</text>
</svg>
